<mxfile host="app.diagrams.net" modified="2020-12-09T08:35:20.695Z" agent="5.0 (Windows)" etag="oQAYCDnXGeZBbQCOUVf7" version="13.11.0" type="github">
  <diagram id="31a5Wb7fOcRARrvHDXlW" name="Page-1">
    <mxGraphModel dx="1254" dy="1788" grid="0" gridSize="10" guides="1" tooltips="1" connect="1" arrows="1" fold="1" page="1" pageScale="1" pageWidth="720" pageHeight="504" math="1" shadow="0">
      <root>
        <mxCell id="0" />
        <mxCell id="1" parent="0" />
        <mxCell id="_4HZ9onOMYs0Qv2sHAgC-1" value="" style="rounded=0;whiteSpace=wrap;html=1;fillColor=#f5f5f5;strokeColor=#666666;fontColor=#333333;rotation=-90;" vertex="1" parent="1">
          <mxGeometry x="390" y="-922.5799999999999" width="216.57" height="212.85" as="geometry" />
        </mxCell>
        <mxCell id="_4HZ9onOMYs0Qv2sHAgC-2" value="" style="rounded=0;whiteSpace=wrap;html=1;strokeColor=#C73500;fillColor=#fa6800;opacity=50;dashed=1;fontColor=#ffffff;rotation=0;strokeWidth=1;perimeterSpacing=1;" vertex="1" parent="1">
          <mxGeometry x="120.22" y="-765" width="43.78" height="200" as="geometry" />
        </mxCell>
        <mxCell id="_4HZ9onOMYs0Qv2sHAgC-3" value="" style="rounded=0;whiteSpace=wrap;html=1;strokeColor=#BD7000;fillColor=#f0a30a;opacity=50;dashed=1;fontColor=#ffffff;rotation=0;strokeWidth=1;" vertex="1" parent="1">
          <mxGeometry x="120.22" y="-885" width="43.78" height="200" as="geometry" />
        </mxCell>
        <mxCell id="_4HZ9onOMYs0Qv2sHAgC-4" value="" style="rounded=0;whiteSpace=wrap;html=1;strokeColor=#B09500;fillColor=#e3c800;opacity=50;dashed=1;fontColor=#ffffff;rotation=0;strokeWidth=1;" vertex="1" parent="1">
          <mxGeometry x="120.22" y="-1005" width="43.78" height="200" as="geometry" />
        </mxCell>
        <mxCell id="_4HZ9onOMYs0Qv2sHAgC-5" value="" style="shape=curlyBracket;whiteSpace=wrap;html=1;rounded=1;strokeColor=#000000;fillColor=#D79B00;opacity=50;rotation=-180;" vertex="1" parent="1">
          <mxGeometry x="165.81" y="-688.37" width="29.19" height="120.45" as="geometry" />
        </mxCell>
        <mxCell id="_4HZ9onOMYs0Qv2sHAgC-6" value="" style="shape=curlyBracket;whiteSpace=wrap;html=1;rounded=1;strokeColor=#000000;fillColor=#D79B00;opacity=50;rotation=-180;" vertex="1" parent="1">
          <mxGeometry x="165.81" y="-765" width="29.19" height="197.08" as="geometry" />
        </mxCell>
        <mxCell id="_4HZ9onOMYs0Qv2sHAgC-7" value="&lt;font style=&quot;font-size: 27px&quot;&gt;stride&lt;/font&gt;" style="text;html=1;align=center;verticalAlign=middle;resizable=0;points=[];autosize=1;" vertex="1" parent="1">
          <mxGeometry x="206.81945945945944" y="-639.6457142857143" width="76" height="23" as="geometry" />
        </mxCell>
        <mxCell id="_4HZ9onOMYs0Qv2sHAgC-8" value="&lt;font style=&quot;font-size: 27px&quot;&gt;window size&lt;/font&gt;" style="text;html=1;align=center;verticalAlign=middle;resizable=0;points=[];autosize=1;rotation=0;" vertex="1" parent="1">
          <mxGeometry x="206.40999999999997" y="-676.4957142857143" width="156" height="23" as="geometry" />
        </mxCell>
        <mxCell id="_4HZ9onOMYs0Qv2sHAgC-9" value="" style="rounded=0;whiteSpace=wrap;html=1;strokeColor=#C73500;fillColor=#fa6800;opacity=70;fontColor=#ffffff;rotation=-180;" vertex="1" parent="1">
          <mxGeometry x="410.95000000000005" y="-915" width="43.78" height="200.05" as="geometry" />
        </mxCell>
        <mxCell id="_4HZ9onOMYs0Qv2sHAgC-15" value="&lt;font style=&quot;font-size: 27px&quot;&gt;feature matrix&lt;/font&gt;" style="text;html=1;align=center;verticalAlign=middle;resizable=0;points=[];autosize=1;" vertex="1" parent="1">
          <mxGeometry x="390.8421621621622" y="-974.9957142857143" width="175" height="23" as="geometry" />
        </mxCell>
        <mxCell id="_4HZ9onOMYs0Qv2sHAgC-16" value="&lt;font style=&quot;font-size: 27px&quot;&gt;$$w$$&lt;/font&gt;" style="text;html=1;align=center;verticalAlign=middle;resizable=0;points=[];autosize=1;rotation=0;" vertex="1" parent="1">
          <mxGeometry x="345.49918918918917" y="-677.96" width="90" height="23" as="geometry" />
        </mxCell>
        <mxCell id="_4HZ9onOMYs0Qv2sHAgC-17" value="&lt;font style=&quot;font-size: 27px&quot;&gt;$$s$$&lt;/font&gt;" style="text;html=1;align=center;verticalAlign=middle;resizable=0;points=[];autosize=1;" vertex="1" parent="1">
          <mxGeometry x="263.22324324324325" y="-639.6457142857143" width="84" height="23" as="geometry" />
        </mxCell>
        <mxCell id="_4HZ9onOMYs0Qv2sHAgC-18" value="&lt;font style=&quot;font-size: 27px&quot;&gt;$$M$$&lt;/font&gt;" style="text;html=1;align=center;verticalAlign=middle;resizable=0;points=[];autosize=1;" vertex="1" parent="1">
          <mxGeometry x="547.6202702702703" y="-974.9957142857143" width="93" height="23" as="geometry" />
        </mxCell>
        <mxCell id="_4HZ9onOMYs0Qv2sHAgC-19" value="" style="rounded=0;whiteSpace=wrap;html=1;strokeColor=none;" vertex="1" parent="1">
          <mxGeometry x="440.002972972973" y="350.0028571428571" width="364.86486486486484" height="50.82857142857142" as="geometry" />
        </mxCell>
        <mxCell id="_4HZ9onOMYs0Qv2sHAgC-20" value="&lt;font style=&quot;font-size: 27px&quot;&gt;Input feature vector &lt;b&gt;x&lt;/b&gt;&lt;br&gt;&lt;/font&gt;" style="text;html=1;align=center;verticalAlign=middle;resizable=0;points=[];autosize=1;rotation=-90;" vertex="1" parent="1">
          <mxGeometry x="-40.00324324324319" y="-804.9957142857144" width="265" height="23" as="geometry" />
        </mxCell>
        <mxCell id="_4HZ9onOMYs0Qv2sHAgC-24" value="" style="rounded=0;whiteSpace=wrap;html=1;opacity=70;fontColor=#ffffff;rotation=-180;fillColor=#E3C800;strokeColor=#B09500;" vertex="1" parent="1">
          <mxGeometry x="537.62" y="-915" width="43.78" height="200.05" as="geometry" />
        </mxCell>
        <mxCell id="_4HZ9onOMYs0Qv2sHAgC-25" value="" style="rounded=0;whiteSpace=wrap;html=1;opacity=70;fontColor=#ffffff;rotation=-180;fillColor=#F0A30A;strokeColor=#BD7000;" vertex="1" parent="1">
          <mxGeometry x="474.84000000000003" y="-915" width="43.78" height="200.05" as="geometry" />
        </mxCell>
        <mxCell id="_4HZ9onOMYs0Qv2sHAgC-33" value="" style="endArrow=classic;html=1;" edge="1" parent="1">
          <mxGeometry relative="1" as="geometry">
            <mxPoint x="165.81" y="-816.65" as="sourcePoint" />
            <mxPoint x="390" y="-817" as="targetPoint" />
          </mxGeometry>
        </mxCell>
        <mxCell id="_4HZ9onOMYs0Qv2sHAgC-34" value="&lt;font style=&quot;font-size: 27px&quot;&gt;sampling&lt;/font&gt;" style="edgeLabel;resizable=0;html=1;align=center;verticalAlign=middle;" connectable="0" vertex="1" parent="_4HZ9onOMYs0Qv2sHAgC-33">
          <mxGeometry relative="1" as="geometry" />
        </mxCell>
      </root>
    </mxGraphModel>
  </diagram>
</mxfile>
